<?xml version="1.0" encoding="utf-8"?>
<!-- Generator: Adobe Illustrator 21.0.0, SVG Export Plug-In . SVG Version: 6.00 Build 0)  -->
<svg version="1.1"
	 id="svg8" xmlns:cc="http://creativecommons.org/ns#" xmlns:dc="http://purl.org/dc/elements/1.1/" xmlns:rdf="http://www.w3.org/1999/02/22-rdf-syntax-ns#" xmlns:svg="http://www.w3.org/2000/svg"
	 xmlns="http://www.w3.org/2000/svg" xmlns:xlink="http://www.w3.org/1999/xlink" x="0px" y="0px" viewBox="0 0 341.5 346.1"
	 style="enable-background:new 0 0 341.5 346.1;" xml:space="preserve">
<style type="text/css">
	.st0{display:none;}
	.st1{display:inline;fill:#FFFFFF;}
	.st2{fill:#3D0D12;}
	.st3{fill:#008000;}
	.st4{fill:#1C5066;}
	.st5{fill:#D96D7B;}
	.st6{fill:none;stroke:#000000;stroke-width:0.265;}
	.st7{fill:#F6E0A0;}
	.st8{fill:#FED048;}
	.st9{fill:#A9D29A;}
	.st10{fill:#064058;}
	.st11{fill:#72C5C0;}
	.st12{fill-opacity:0;}
</style>
<g id="layer2" transform="translate(-646.91476,61.637767)" class="st0">
	<polygon id="rect4874" class="st1" points="-1185.3,114.2 -808.2,114.2 -808.2,114.2 -808.2,393.8 -808.2,393.8 -1185.3,393.8 
		-1185.3,393.8 -1185.3,114.2 	"/>
</g>
<g id="layer1" transform="translate(-646.91476,61.637767)">
	<path id="path831" class="st2" d="M-522-147c0,51.7-41.8,93.6-93.5,93.7c-51.7,0.1-93.7-41.6-94-93.3s41.4-93.8,93-94.2
		c51.7-0.4,93.9,41.1,94.4,92.8"/>
	<path id="path831-6" class="st2" d="M-551,259.3c-51.7,0.1-93.7-41.6-94-93.3s42.9-93.8,94.5-94.2"/>
	<path id="path910" class="st3" d="M-1659.1-32c0,0.1,0,0.3,0,0.4c0.2,46.5,38,84,84.5,83.9c46.5-0.1,84.1-37.8,84.1-84.3v0h-85.8
		H-1659.1z"/>
	<path id="path4701" class="st3" d="M-883.2,60.6l0-0.6c-0.5-51.1-42-92.3-93.1-92.5v93.1L-883.2,60.6z"/>
	<path id="path4699" class="st3" d="M148.1,368.7c51.3-0.2,92.9-41.8,93.1-93.1h-93.1V368.7z"/>
	<path id="path4697" class="st4" d="M241.1,461.8C241.2,461.8,241.2,461.8,241.1,461.8c-0.3,51.4-41.8,92.9-93.1,93.1v-93.1
		L241.1,461.8z"/>
	<path id="path4695" class="st5" d="M241.1,461.8c0-0.1,0-0.2,0-0.3c-0.4-51.2-41.9-92.5-93.1-92.7v93.1H241.1z"/>
	<path id="path968" class="st3" d="M-457.9,165.5v93.1h-93.1c0,0.2,0,0.5,0,0.7h93.1v93.1c0.2,0,0.4,0,0.6,0c0,0,0.1,0,0.1,0v-93.1
		h93.1c0-0.1,0-0.2,0-0.4l0-0.4h-93.1v-93.1C-457.4,165.5-457.6,165.5-457.9,165.5z"/>
	<path id="path970" class="st6" d="M39.9-1.8V130"/>
	<path id="path4701-9" class="st3" d="M256.2,133.5l0-0.6c-0.5-51.1-42-92.3-93.1-92.5v93.1H256.2z"/>
	<path id="path4699-9" class="st3" d="M163,227.4c51.3-0.2,92.9-41.8,93.1-93.1H163V227.4z"/>
	<path id="path4697-5" class="st3" d="M69.2,134.3C69.2,134.3,69.2,134.3,69.2,134.3c0.3,51.4,41.8,92.9,93.1,93.1v-93.1L69.2,134.3
		z"/>
	<path id="path4695-1" class="st3" d="M162.3,40.4c-0.1,0-0.2,0-0.3,0c-51.2,0.4-92.5,41.9-92.7,93.1h93.1V40.4z"/>
	
		<image style="overflow:visible;enable-background:new    ;" width="4000" height="14157" id="image4735" xlink:href="69141A33.png"  transform="matrix(0.24 0 0 0.24 -2203.2014 102.3797)">
	</image>
	<path id="path4701-5" class="st7" d="M241.2,647.9l0-0.6c-0.5-51.1-42-92.3-93.1-92.5v93.1L241.2,647.9z"/>
	<path id="path831-5" class="st8" d="M332.4,601.5c0,25.4-20.6,46-46,46.1s-46.1-20.4-46.2-45.8c-0.1-25.4,20.3-46.1,45.7-46.3
		c25.4-0.2,46.2,20.2,46.4,45.6"/>
	<path id="path4699-8" class="st9" d="M241.1,461.8c51.3,0.2,92.9,41.8,93.1,93.1h-93.1L241.1,461.8z"/>
	<path id="path831-5-5" class="st8" d="M-188.5,113.2c0,25.4-20.6,46-46,46.1c-25.4,0.1-46.1-20.4-46.2-45.8
		c-0.1-25.4,20.3-46.1,45.7-46.3c25.4-0.2,46.2,20.2,46.4,45.6"/>
	<path id="path910-9" class="st5" d="M334.2,554.9c0.2,0,0.3,0,0.5,0c51.3-0.3,92.8-42,92.7-93.4c-0.1-51.3-41.8-92.9-93.1-92.9h0
		v94.8L334.2,554.9z"/>
	<path id="path4701-3" class="st8" d="M427.9,462.2l0.6,0c51.1-0.5,92.3-42,92.5-93.1h-93.1V462.2z"/>
	<path id="path4701-3-2" class="st9" d="M429.9,555.3l-0.6,0c-51.1,0.5-92.3,42-92.5,93.1h93.1L429.9,555.3z"/>
	<path id="path4701-3-2-6" class="st4" d="M429.9,648.4l0.6,0c51.1-0.5,92.3-42,92.5-93.1h-93.1L429.9,648.4z"/>
	<path id="path831-5-5-1" class="st8" d="M-188.5,112.8c0,25.4-20.6,46-46,46.1c-25.4,0.1-46.1-20.4-46.2-45.8s20.3-46.1,45.7-46.3
		s46.2,20.2,46.4,45.6"/>
	<path id="path831-5-5-1-7" class="st7" d="M524.5,510.5c0,24.2-19.6,43.9-43.8,43.9c-24.2,0.1-43.9-19.5-44-43.7
		c-0.1-24.2,19.4-44,43.6-44.1c24.2-0.2,44,19.3,44.3,43.5"/>
	<path id="path831-5-5-1-7-0" class="st10" d="M334.4,412.5c0,24.2-19.6,43.9-43.8,43.9c-24.2,0.1-43.9-19.5-44-43.7
		c-0.1-24.2,19.4-44,43.6-44.1c24.2-0.2,44,19.3,44.3,43.5"/>
	<path id="path910-9-1" class="st8" d="M-320,1056.7c0.5,0,1,0,1.5,0.1c161.2-0.8,291.3-131.9,290.9-293.1
		C-28,602.5-158.8,472-320,472h0v297.6L-320,1056.7z"/>
	<path id="path4701-3-2-1" class="st5" d="M-888.1,658.3l1.7,0c160.4,1.7,289.8,131.9,290.4,292.3h-292.2V658.3z"/>
	<path id="path4701-3-2-1-1" class="st11" d="M-888.1,950.6l-1.7,0c-160.4-1.7-289.8-131.9-290.4-292.3h292.2V950.6z"/>
	<path id="path910-9-1-7" class="st8" d="M-583,1170c0.5,0,1,0,1.5,0.1c161.2-0.8,291.3-131.9,290.9-293.1
		C-291,715.8-421.8,585.3-583,585.3h0v297.6L-583,1170z"/>
	<path id="path4701-3-2-1-1-2" class="st11" d="M-1180.4,659.7l0-1.7c1.7-160.4,131.9-289.8,292.3-290.4v292.2H-1180.4z"/>
	<polygon id="rect950" class="st12" points="-1185.4,359.5 -586.9,359.5 -586.9,359.5 -586.9,958 -586.9,958 -1185.4,958 
		-1185.4,958 -1185.4,359.5 	"/>
	<polygon id="rect956" class="st12" points="-1152.4,166 -580.9,166 -580.9,166 -580.9,737.5 -580.9,737.5 -1152.4,737.5 
		-1152.4,737.5 -1152.4,166 	"/>
</g>
<g id="layer3" transform="translate(-646.91476,61.637767)">
	<path id="path831-5-2" class="st8" d="M454.8,219.9c-51.3,0-92.9-41.5-93-92.8c-0.1-51.3,41.3-93,92.6-93.3
		c51.3-0.3,93.1,41.1,93.5,92.3c0.4,51.3-40.8,93.2-92.1,93.7"/>
	<path id="path4699-7" class="st9" d="M360.5,37.9c-51.3,0.2-92.9,41.8-93.1,93.1h93.1L360.5,37.9z"/>
	<path id="path910-9-2" class="st5" d="M361.7,219.9c0,0.2,0,0.3,0,0.5c0.3,51.3,42,92.8,93.4,92.7c51.3-0.1,92.9-41.8,92.9-93.1v0
		h-94.8L361.7,219.9z"/>
	<polygon id="rect5003" class="st11" points="-1093.6,-645.7 -1093.6,313.8 -1093.6,313.8 -1256.5,313.8 -1256.5,313.8 
		-1256.5,-645.7 -1256.5,-645.7 -1093.6,-645.7 	"/>
	<polygon id="rect5003-1" class="st11" points="-49,-641.9 -49,317.6 -49,317.6 -121.8,317.6 -121.8,317.6 -121.8,-641.9 
		-121.8,-641.9 -49,-641.9 	"/>
	<polygon id="rect5003-1-5" class="st11" points="44.9,-641.9 44.9,317.6 44.9,317.6 -28,317.6 -28,317.6 -28,-641.9 -28,-641.9 
		44.9,-641.9 	"/>
	<path id="rect5003-0" class="st9" d="M-440.3,324.4L-440.3,324.4h-207l0,0C-559-43.9-807.6-326.7-768.5-635.1v0h232.7
		C-565.5-307.7-329.3-25.9-440.3,324.4L-440.3,324.4z"/>
	<path id="path831-5-2-3" class="st9" d="M-470.6-523.3c-25.4,0-46-20.6-46.1-46c-0.1-25.4,20.4-46.1,45.8-46.2s46.1,20.3,46.3,45.7
		c0.2,25.4-20.2,46.2-45.6,46.4"/>
	<path id="path831-5-2-3-8" class="st9" d="M-437.1-283.2c-22.1,0-40-17.9-40-39.9c-0.1-22.1,17.8-40,39.8-40.1
		c22.1-0.1,40,17.7,40.2,39.7c0.2,22.1-17.6,40.1-39.6,40.3"/>
	<path id="path831-5-2-3-8-1" class="st9" d="M-408.9-179.2c-20,0-36.2-16.2-36.2-36.1c0-20,16.1-36.2,36-36.3
		c20-0.1,36.3,16,36.4,36s-15.9,36.3-35.9,36.5"/>
	<path id="path831-5-2-3-8-1-1" class="st9" d="M-378.8-81.1c-17.9,0-32.4-14.5-32.4-32.4s14.4-32.4,32.3-32.5
		c17.9-0.1,32.5,14.3,32.6,32.2s-14.2,32.5-32.1,32.7"/>
	<path id="path831-5-2-3-8-1-1-6" class="st9" d="M-364.4,7.3c-15.6,0-28.2-12.6-28.3-28.2s12.5-28.3,28.1-28.3
		c15.6-0.1,28.3,12.5,28.4,28.1c0.1,15.6-12.4,28.3-28,28.5"/>
	<path id="path831-5-2-3-8-1-1-6-1" class="st9" d="M-361.4,90c-12.7,0-22.9-10.2-23-22.9c0-12.7,10.2-23,22.8-23
		c12.7-0.1,23,10.1,23.1,22.8c0.1,12.7-10.1,23-22.7,23.1"/>
	<path id="path831-5-2-3-8-1-1-6-4" class="st9" d="M-361.2,166.2c-11,0-19.9-8.9-19.9-19.9c0-11,8.8-19.9,19.8-20s20,8.8,20,19.8
		c0.1,11-8.7,20-19.7,20.1"/>
	<path id="path831-5-2-3-8-1-1-6-13" class="st9" d="M-371,239.7c-10.2,0-18.4-8.2-18.4-18.4c0-10.2,8.2-18.4,18.3-18.5
		c10.2-0.1,18.4,8.1,18.5,18.3c0.1,10.2-8.1,18.5-18.2,18.6"/>
	<path id="path831-5-2-3-8-1-1-6-6" class="st9" d="M-388.4,307.9c-8.5,0-15.4-6.9-15.4-15.3c0-8.5,6.8-15.4,15.3-15.4
		c8.5,0,15.4,6.8,15.5,15.3c0.1,8.5-6.8,15.4-15.2,15.5"/>
	<path id="path831-5-2-3-0" class="st9" d="M-458.7-396.3c-24.6,0-44.5-19.9-44.6-44.4c-0.1-24.6,19.8-44.5,44.3-44.7
		c24.6-0.1,44.6,19.7,44.8,44.2c0.2,24.6-19.5,44.6-44.1,44.9"/>
	<polygon id="rect5003-1-5-0" class="st11" points="138.8,-641.9 138.8,317.6 138.8,317.6 65.9,317.6 65.9,317.6 65.9,-641.9 
		65.9,-641.9 138.8,-641.9 	"/>
	<path id="rect5003-0-9" class="st9" d="M-1892.7-822.8L-1892.7-822.8h-207l0,0c88.3-368.3-160.3-651.1-121.2-959.5c0,0,0,0,0,0
		h232.7C-2017.9-1454.9-1781.8-1173.1-1892.7-822.8z"/>
	<path id="rect5003-0-9-1" class="st9" d="M-2605-450.4c1,263.9,149.3,497.8,125.3,761.2h223.7h9h147.4v-959.5H-2250h-6h-112.2h-207
		C-2596.8-580.3-2605.2-514.5-2605-450.4z"/>
	<path id="rect5003-0-9-1-1" class="st7" d="M-1594.1,112.5c-1-263.9-149.3-497.8-125.3-761.2h-223.7h-9h-147.4
		c0,319.8,0,966.6,0,959.5h150.4h6h112.2h207C-1602.3,242.4-1593.9,176.6-1594.1,112.5z"/>
	<path id="path4699-7-2" class="st11" d="M995.5-58.3c-177.2,27-316.8,165-346.1,341.8h346.1V-58.3z"/>
	<path id="path831-5-2-6" class="st5" d="M-631.8-1006.1c-51.3,0-92.9-41.5-93-92.8c-0.1-51.3,41.3-93,92.6-93.3
		c51.3-0.3,93.1,41.1,93.5,92.3c0.4,51.3-40.8,93.2-92.1,93.7"/>
	<path id="rect5444" class="st5" d="M-444.8-4131l-754.3-478.5v478.5v492.9C-1199-3638.2-444.8-4131-444.8-4131L-444.8-4131z"/>
	<path id="path831-5-2-9" class="st8" d="M-39.3,768c-51.3,0-92.9-41.5-93-92.8c-0.1-51.3,41.3-93,92.6-93.3
		c51.3-0.3,93.1,41.1,93.5,92.3S12.9,767.5-38.4,768"/>
	<path id="path831-5-2-9-7" class="st9" d="M403.8-1584.8c-78.2,0-141.7,63.3-141.8,141.5s62.9,141.8,141.1,142.2
		c78.2,0.4,142-62.6,142.5-140.8c0.6-78.2-62.2-142.1-140.4-142.9"/>
</g>
</svg>
